<svg width="573" height="130" viewBox="0 0 573 130" fill="none" xmlns="http://www.w3.org/2000/svg">
<path d="M60 30C32.7273 30 9.43636 47.0013 0 71C9.43636 94.9987 32.7273 112 60 112C87.2727 112 110.564 94.9987 120 71C110.564 47.0013 87.2727 30 60 30ZM60 98.3333C44.9455 98.3333 32.7273 86.088 32.7273 71C32.7273 55.912 44.9455 43.6667 60 43.6667C75.0545 43.6667 87.2727 55.912 87.2727 71C87.2727 86.088 75.0545 98.3333 60 98.3333ZM60 54.6C50.9455 54.6 43.6364 61.9253 43.6364 71C43.6364 80.0747 50.9455 87.4 60 87.4C69.0545 87.4 76.3636 80.0747 76.3636 71C76.3636 61.9253 69.0545 54.6 60 54.6Z" fill="#9E2625"/>
<path d="M153.016 34.8H181.72C190.616 34.8 197.272 36.016 201.688 38.448C206.168 40.816 208.408 44.848 208.408 50.544C208.408 59.312 203.128 64.56 192.568 66.288V66.48C205.368 68.08 211.768 73.648 211.768 83.184C211.768 90.16 209.144 95.056 203.896 97.872C198.648 100.624 191.096 102 181.24 102H153.016V100.176H159.256V36.624H153.016V34.8ZM177.976 68.016V100.176H182.488C186.008 100.176 188.472 98.96 189.88 96.528C191.288 94.096 191.992 90.512 191.992 85.776V80.688C191.992 76.464 191.128 73.296 189.4 71.184C187.672 69.072 184.6 68.016 180.184 68.016H177.976ZM177.976 36.624V66.192H180.472C183.8 66.192 186.104 65.2 187.384 63.216C188.728 61.168 189.4 58.064 189.4 53.904V49.392C189.4 44.656 188.824 41.36 187.672 39.504C186.52 37.584 184.312 36.624 181.048 36.624H177.976ZM252.847 100.176L245.839 79.44H226.831L219.439 100.176H226.639V102H211.951V100.176H216.463L240.943 34.224H248.815L273.007 100.176H277.423V102H246.031V100.176H252.847ZM236.719 52.176L227.695 77.328H245.071L236.719 52.176ZM336.561 84.624L353.265 36.624H345.777V34.8H360.465V36.624H355.953L332.817 102.96H324.753L300.273 36.624H295.857V34.8H327.249V36.624H320.433L336.561 84.624ZM374.666 49.68C371.274 49.68 368.842 48.816 367.37 47.088C365.962 45.36 365.258 43.216 365.258 40.656C365.258 38.096 366.026 35.984 367.562 34.32C369.162 32.656 371.562 31.824 374.762 31.824C377.962 31.824 380.394 32.592 382.058 34.128C383.722 35.6 384.554 37.744 384.554 40.56C384.554 43.312 383.754 45.52 382.154 47.184C380.554 48.848 378.058 49.68 374.666 49.68ZM360.17 56.304H383.69V100.272H389.066V102H360.554V100.272H365.834V58.032H360.17V56.304ZM393.23 102.96V85.776H394.383C396.047 91.344 398.287 95.248 401.103 97.488C403.919 99.728 407.439 100.848 411.663 100.848C418.191 100.848 421.455 98.768 421.455 94.608C421.455 92.816 420.655 91.472 419.055 90.576C416.559 89.168 413.359 88.08 409.455 87.312C405.103 86.16 401.455 84.624 398.511 82.704C394.991 80.4 393.23 76.752 393.23 71.76C393.23 66.768 394.766 62.8 397.839 59.856C400.911 56.848 405.007 55.344 410.127 55.344C413.263 55.344 416.495 56.08 419.823 57.552C421.039 58.064 421.967 58.32 422.607 58.32C423.247 58.32 423.791 58.096 424.239 57.648C424.687 57.2 425.231 56.368 425.871 55.152H426.927V69.84H425.775C422.511 61.52 417.455 57.36 410.607 57.36C407.599 57.36 405.359 57.904 403.887 58.992C402.415 60.016 401.679 61.328 401.679 62.928C401.679 63.888 401.903 64.656 402.351 65.232C402.799 65.744 403.151 66.128 403.407 66.384C403.663 66.64 404.079 66.928 404.655 67.248C405.231 67.504 405.711 67.728 406.095 67.92C406.479 68.048 407.055 68.24 407.823 68.496C408.655 68.752 409.263 68.912 409.647 68.976C413.999 70.064 417.135 71.024 419.055 71.856C420.975 72.624 422.799 73.584 424.527 74.736C428.047 77.168 429.807 81.104 429.807 86.544C429.807 91.92 428.207 96.016 425.007 98.832C421.807 101.584 417.423 102.96 411.855 102.96C407.887 102.96 404.047 102.032 400.335 100.176C399.567 99.664 398.959 99.408 398.511 99.408C397.103 99.408 395.727 100.592 394.383 102.96H393.23ZM488.058 102H466.17L465.114 94.992C464.09 97.552 462.554 99.536 460.506 100.944C458.522 102.288 455.546 102.96 451.578 102.96C441.658 102.96 436.698 97.616 436.698 86.928V58.032H431.322V56.304H454.554V89.232C454.554 93.072 454.81 95.6 455.322 96.816C455.898 98.032 456.986 98.64 458.586 98.64C460.25 98.64 461.722 97.648 463.002 95.664C464.282 93.68 464.922 90.928 464.922 87.408V58.032H460.506V56.304H482.778V100.272H488.058V102ZM513.062 79.44H515.847V72.048C515.847 65.968 515.495 61.904 514.791 59.856C514.151 57.744 512.871 56.688 510.951 56.688C509.799 56.688 508.743 57.008 507.783 57.648C506.887 58.224 506.439 59.056 506.439 60.144C506.439 61.168 506.631 62.224 507.015 63.312H509.415C509.927 64.656 510.183 66.288 510.183 68.208C510.183 70.064 509.383 71.696 507.783 73.104C506.183 74.448 504.167 75.12 501.734 75.12C496.231 75.12 493.479 72.464 493.479 67.152C493.479 59.28 500.167 55.344 513.543 55.344C521.159 55.344 526.407 56.656 529.287 59.28C532.231 61.84 533.703 66.576 533.703 73.488V92.976C533.703 96.304 534.631 97.968 536.487 97.968C538.663 97.968 539.943 94.672 540.327 88.08L541.767 88.176C541.511 93.808 540.455 97.68 538.599 99.792C536.743 101.904 533.703 102.96 529.479 102.96C521.799 102.96 517.383 100.592 516.231 95.856C515.399 98.288 514.151 100.08 512.487 101.232C510.823 102.384 508.391 102.96 505.191 102.96C495.719 102.96 490.983 99.088 490.983 91.344C490.983 86.8 492.775 83.696 496.359 82.032C500.007 80.304 505.575 79.44 513.062 79.44ZM509.223 91.248C509.223 94.576 509.383 96.72 509.703 97.68C510.087 98.64 510.759 99.12 511.719 99.12C512.743 99.12 513.671 98.32 514.503 96.72C515.399 95.056 515.847 92.784 515.847 89.904V80.976H515.175C511.207 80.976 509.223 83.888 509.223 89.712V91.248ZM542.326 30H565.846V100.272H571.222V102H542.71V100.272H547.99V31.728H542.326V30Z" fill="#121212"/>
</svg>
